HIERARCHY
ROOT root
{
	OFFSET	0	13.1	24.9
	CHANNELS 6  Xposition Yposition Zposition Xrotation Yrotation Zrotation
	JOINT spine_1
	{
		OFFSET	0	9.99999	0
		CHANNELS 3  Xrotation Yrotation Zrotation
		JOINT spine_2
		{
			OFFSET	0	112	-10
			CHANNELS 3  Xrotation Yrotation Zrotation
			JOINT spine_3
			{
				OFFSET	0	206.5	19.3
				CHANNELS 3  Xrotation Yrotation Zrotation
				JOINT spine_4
				{
					OFFSET	0	110.4	14.6
					CHANNELS 3  Xrotation Yrotation Zrotation
					JOINT neck_1
					{
						OFFSET	0	71.8	-50.3
						CHANNELS 3  Xrotation Yrotation Zrotation
						JOINT neck_2
						{
							OFFSET	0	86.2	-25.8
							CHANNELS 3  Xrotation Yrotation Zrotation
							JOINT head_ee
							{
								OFFSET	0	179.8	-8.7
								CHANNELS 3  Xrotation Yrotation Zrotation
								End Site
								{
									OFFSET	1	0	0
								}
							}
						}
					}
					JOINT left_clavicle
					{
						OFFSET	-43.2	22.4	-70.8
						CHANNELS 3  Xrotation Yrotation Zrotation
						JOINT left_shoulder
						{
							OFFSET	-93.9	-5.79999	48.7
							CHANNELS 3  Xrotation Yrotation Zrotation
							JOINT left_elbow
							{
								OFFSET	-291.4	-30.8	15.2
								CHANNELS 3  Xrotation Yrotation Zrotation
								JOINT left_lowarm_twist
								{
									OFFSET	-110.7	-3.89999	13.6
									CHANNELS 3  Xrotation Yrotation Zrotation
									JOINT left_hand
									{
										OFFSET	-110.7	-3.89999	13.6
										CHANNELS 3  Xrotation Yrotation Zrotation
										JOINT left_ee
										{
											OFFSET	-80.8	-5.10001	12.1
											CHANNELS 3  Xrotation Yrotation Zrotation
											End Site
											{
												OFFSET	1	0	0
											}
										}
									}
								}
							}
						}
					}
					JOINT right_clavicle
					{
						OFFSET	43.2	22.4	-70.8
						CHANNELS 3  Xrotation Yrotation Zrotation
						JOINT right_shoulder
						{
							OFFSET	93.9	-5.79999	48.7
							CHANNELS 3  Xrotation Yrotation Zrotation
							JOINT right_elbow
							{
								OFFSET	291.4	-30.8	15.2
								CHANNELS 3  Xrotation Yrotation Zrotation
								JOINT right_lowarm_twist
								{
									OFFSET	110.7	-3.89999	13.6
									CHANNELS 3  Xrotation Yrotation Zrotation
									JOINT right_hand
									{
										OFFSET	110.7	-3.89999	13.6
										CHANNELS 3  Xrotation Yrotation Zrotation
										JOINT right_ee
										{
											OFFSET	80.8	-5.10001	12.1
											CHANNELS 3  Xrotation Yrotation Zrotation
											End Site
											{
												OFFSET	1	0	0
											}
										}
									}
								}
							}
						}
					}
				}
			}
		}
	}
	JOINT left_hip
	{
		OFFSET	-82.8	-127.5	0.300001
		CHANNELS 3  Xrotation Yrotation Zrotation
		JOINT left_knee
		{
			OFFSET	-28.2	-396.7	2.2
			CHANNELS 3  Xrotation Yrotation Zrotation
			JOINT left_ankle
			{
				OFFSET	-11.7	-411.3	35.4
				CHANNELS 3  Xrotation Yrotation Zrotation
				JOINT left_toes
				{
					OFFSET	0	-60	-88.6
					CHANNELS 3  Xrotation Yrotation Zrotation
					JOINT left_foot_ee
					{
						OFFSET	-22.5	-16.5	-42.2
						CHANNELS 3  Xrotation Yrotation Zrotation
						End Site
						{
							OFFSET	1	0	0
						}
					}
				}
			}
		}
	}
	JOINT right_hip
	{
		OFFSET	82.8	-127.5	0.300001
		CHANNELS 3  Xrotation Yrotation Zrotation
		JOINT right_knee
		{
			OFFSET	28.2	-396.7	2.2
			CHANNELS 3  Xrotation Yrotation Zrotation
			JOINT right_ankle
			{
				OFFSET	11.7	-411.3	35.4
				CHANNELS 3  Xrotation Yrotation Zrotation
				JOINT right_toes
				{
					OFFSET	0	-60	-88.6
					CHANNELS 3  Xrotation Yrotation Zrotation
					JOINT right_foot_ee
					{
						OFFSET	22.5	-16.5	-42.2
						CHANNELS 3  Xrotation Yrotation Zrotation
						End Site
						{
							OFFSET	1	0	0
						}
					}
				}
			}
		}
	}
}
MOTION
Frames: 15
Frame Time: 0.02
367.094 754.53 -652.26 -168.447 -75.3368 -172.483 0.974552 0.578958 3.85628 0.982762 0.332589 3.88525 1.00743 -0.423724 3.87638 0.986516 0.193316 3.89465 -13.0256 8.38812 -8.82287 -13.1005 21.4658 -5.91408 -0.0 0.0 -0.0 -4.23206 23.7501 -3.02761 0.993702 -40.4568 60.6598 1.57254 -37.9155 0.540203 -69.0148 -6.42036 5.29233 -1.8007 23.9701 -0.755666 -0.0 0.0 -0.0 8.92019 21.6565 -16.8677 -20.2095 23.0457 -70.2359 0.639049 17.5661 -0.0987375 24.26 -0.207825 3.06896 -0.544127 -7.82253 0.272537 0.0 0.0 0.0 13.8047 56.3052 -11.5955 -10.8418 0.292368 1.6357 2.22971 -22.5248 -0.377926 25.2552 -0.0 -0.0 -0.0 0.0 -0.0 10.8972 42.0389 0.895963 -17.9004 -0.314721 -2.71778 13.0704 -16.8526 1.86102 -3.43084 0.0 0.0 0.0 0.0 0.0 
368.13 755.103 -647.895 -168.226 -75.9266 -172.026 1.06916 0.594224 3.70313 1.07672 0.357549 3.73337 1.10182 -0.363649 3.73279 1.08245 0.230013 3.74338 -12.7522 8.26177 -9.01059 -12.7981 21.3709 -6.19063 -0.0 0.0 -0.0 -4.43183 23.9306 -3.25893 1.33097 -40.3512 60.977 1.6078 -38.5328 0.562017 -69.0625 -6.42644 5.29286 -1.81678 23.9232 -0.869471 -0.0 0.0 -0.0 8.92413 21.6789 -16.8746 -19.9668 23.0246 -70.2662 0.629816 17.3276 -0.0959694 24.2549 -0.207918 3.06832 -0.559752 -7.9771 0.307706 0.0 0.0 0.0 13.7857 56.1862 -11.9194 -11.2282 0.297041 1.6948 2.07533 -22.6265 -0.352301 25.1043 -0.0 -0.0 -0.0 0.0 -0.0 10.7626 42.0239 0.953359 -18.0823 -0.313534 -2.74567 13.1098 -16.3736 1.86392 -3.45737 0.0 0.0 0.0 0.0 0.0 
371.136 748.53 -646.245 -169.282 -76.8025 -173.188 1.10304 0.643543 3.59448 1.11013 0.413667 3.62809 1.13805 -0.285965 3.64036 1.11968 0.29216 3.63987 -11.4737 7.55336 -10.4887 -11.3499 21.1184 -8.10267 -0.0 0.0 -0.0 -4.55511 24.1655 -3.37028 1.44466 -40.2754 61.3507 1.72802 -40.5603 0.638574 -69.1318 -6.43527 5.29362 -1.83924 23.2804 -1.30359 -0.0 0.0 -0.0 9.02283 22.6424 -17.011 -20.0296 23.0355 -69.3218 0.622739 17.1444 -0.0938725 24.5485 -0.202441 3.10542 -0.578137 -8.08504 0.380542 0.0 0.0 0.0 13.6583 56.1062 -12.0494 -11.6815 0.302013 1.76418 0.326948 -22.6772 -0.055821 24.7464 -0.0 -0.0 -0.0 0.0 -0.0 9.96378 41.9761 1.11421 -21.4457 -0.275656 -3.26029 14.2521 -15.9412 2.01555 -3.22499 0.0 0.0 0.0 0.0 0.0 
383.965 746.548 -645.33 -171.609 -76.7243 -175.375 1.01481 1.03033 3.49185 1.02123 0.806194 3.55023 1.07346 0.110905 3.63882 1.05564 0.683825 3.57579 -11.0001 7.25656 -10.9792 -10.8128 20.9389 -8.76508 -0.0 0.0 -0.0 -4.64251 24.3303 -3.44863 1.4846 -40.2398 62.3354 1.81862 -42.0114 0.698363 -69.1806 -6.44149 5.29415 -1.84028 22.6386 -1.61562 -0.0 0.0 -0.0 9.09809 23.2309 -17.1255 -21.1042 22.6936 -69.884 0.617805 17.0165 -0.0924231 24.7533 -0.198507 3.13129 -0.592563 -8.2421 0.406613 0.0 0.0 0.0 13.3647 56.0649 -11.9685 -12.377 0.308574 1.87068 -1.18134 -22.7709 0.202738 24.325 -0.0 -0.0 -0.0 0.0 -0.0 9.62379 41.5223 0.837926 -23.7508 -0.232282 -3.61132 15.0166 -14.878 2.1121 -3.10871 0.0 0.0 0.0 0.0 0.0 
394.263 745.409 -644.987 -174.259 -76.6816 -178.1 0.928503 1.29464 3.41393 0.934344 1.07492 3.48927 1.00247 0.382379 3.63085 0.985337 0.950648 3.52512 -9.97404 5.5608 -13.0135 -9.55893 19.267 -11.4304 -0.0 0.0 -0.0 -4.92702 24.3424 -3.83335 0.988101 -40.0252 62.8757 1.88149 -42.9809 0.740833 -68.3792 -6.33936 5.28477 -1.77507 21.319 -1.86378 -0.0 0.0 -0.0 9.16273 24.7998 -17.1201 -21.9511 22.8698 -69.8809 0.643277 17.6751 -0.100018 25.7201 -0.178689 3.25319 -0.648238 -7.98957 0.875217 0.0 0.0 0.0 13.1274 56.0415 -11.8746 -12.8805 0.312516 1.94783 -2.61072 -22.8463 0.450052 24.4318 -0.0 -0.0 -0.0 0.0 -0.0 9.22451 38.636 1.1128 -25.2111 -0.197508 -3.83272 15.3818 -9.79047 2.14429 -3.02754 0.0 0.0 0.0 0.0 0.0 
398.95 745.488 -642.4 -173.805 -77.5765 -177.604 0.853854 1.23002 3.3959 0.859701 1.01157 3.46717 0.923635 0.319391 3.59742 0.906665 0.883179 3.50204 -11.5395 5.11292 -13.7053 -11.1377 18.6149 -11.9351 -0.0 0.0 -0.0 -5.09745 24.3452 -4.06526 0.516901 -39.0969 62.7759 1.98173 -44.4657 0.810122 -67.4598 -6.22235 5.27223 -1.73011 20.3952 -2.03616 -0.0 0.0 -0.0 9.30144 25.9122 -17.315 -22.6948 23.7688 -69.4132 0.70372 19.2187 -0.119145 26.3326 -0.165069 3.33026 -0.741876 -8.03086 1.4636 0.0 0.0 0.0 13.2712 55.8671 -12.3748 -12.9214 0.312807 1.9541 -3.61889 -22.3176 0.621888 24.506 -0.0 -0.0 -0.0 0.0 -0.0 8.96387 34.4163 1.59291 -24.5158 -0.21477 -3.72741 17.7538 -3.62522 2.45354 -2.8594 0.0 0.0 0.0 0.0 0.0 
405.679 745.87 -636.238 -179.234 -76.9116 177.534 0.737975 1.4861 3.34146 0.743289 1.27059 3.42912 0.822489 0.575009 3.61126 0.806097 1.13778 3.4754 -12.9735 4.68435 -14.0864 -12.59 17.7705 -12.178 -0.0 0.0 -0.0 -5.2559 24.5792 -4.21892 -0.529151 -38.3564 62.8855 2.04748 -45.4004 0.856563 -66.9492 -6.15744 5.26446 -1.72717 19.7198 -2.33763 -0.0 0.0 -0.0 9.58573 26.7557 -17.8572 -22.8521 24.4311 -69.1178 0.747216 20.3119 -0.133855 26.3986 -0.163553 3.33855 -0.811414 -8.05541 1.90315 0.0 0.0 0.0 13.9911 54.5545 -12.5302 -12.9276 0.312851 1.95505 -4.37109 -21.9442 0.749535 24.1252 -0.0 -0.0 -0.0 0.0 -0.0 8.87825 31.2928 0.904411 -24.0778 -0.224987 -3.66097 18.8476 1.27877 2.61547 -2.76248 0.0 0.0 0.0 0.0 0.0 
407.417 735.501 -633.132 -179.519 -76.1101 177.639 0.765142 1.66415 3.29108 0.769997 1.45148 3.39016 0.859095 0.762697 3.60785 0.843371 1.32259 3.44244 -13.9713 4.44822 -14.1966 -13.6069 17.1825 -12.1946 -0.0 0.0 -0.0 -5.17734 24.4008 -4.15962 -1.10445 -37.857 63.0388 2.12289 -46.4354 0.910731 -66.5923 -6.11211 5.25868 -1.73399 19.2355 -2.60716 -0.0 0.0 -0.0 9.85925 27.913 -18.3355 -22.9259 25.318 -68.693 0.781775 21.1697 -0.146094 26.4336 -0.162743 3.34295 -0.870475 -8.00371 2.30827 0.0 0.0 0.0 14.6201 53.6127 -12.7815 -12.8917 0.312597 1.94956 -4.90177 -21.6869 0.839299 23.8595 -0.0 -0.0 -0.0 0.0 -0.0 8.63448 29.0693 0.519368 -23.8055 -0.231082 -3.61963 19.6089 4.7023 2.74037 -2.64467 0.0 0.0 0.0 0.0 0.0 
410.81 730.013 -633.901 -178.397 -74.8473 178.159 0.81375 1.62326 3.37292 0.818981 1.40547 3.46923 0.907275 0.705179 3.67586 0.890693 1.27651 3.51868 -15.3365 4.88727 -14.1211 -15.0484 17.6777 -11.7669 -0.0 0.0 -0.0 -5.29582 24.7756 -4.22014 -2.00097 -36.0165 63.2116 2.2238 -47.7615 0.984658 -66.1367 -6.0543 5.25089 -1.68213 18.0835 -2.83875 -0.0 0.0 -0.0 9.33003 28.4632 -17.0942 -21.3269 28.8776 -66.5689 0.830948 22.3732 -0.164333 26.7937 -0.154273 3.38817 -0.709116 -9.59161 0.577654 0.0 0.0 0.0 19.6026 47.9144 -15.3049 -17.1675 0.318605 2.60541 -8.1263 -18.2093 1.35454 23.9457 -0.0 -0.0 -0.0 0.0 -0.0 6.15989 23.8632 2.09858 -21.7126 -0.271358 -3.30101 24.277 10.1104 3.39117 -3.21917 0.0 0.0 0.0 0.0 0.0 
410.129 731.589 -632.727 -176.895 -73.6197 179.853 0.845482 1.59398 3.40371 0.850877 1.3743 3.49809 0.937922 0.670916 3.69777 0.921008 1.24613 3.54572 -17.3869 6.00932 -11.02 -17.4081 17.6427 -8.09181 -0.0 0.0 -0.0 -5.4243 25.0563 -4.31713 -3.11716 -33.4437 63.4724 2.31633 -48.9208 1.05379 -66.4408 -6.09288 5.25614 -1.46446 17.5319 -1.7768 -0.0 0.0 -0.0 9.61013 28.1051 -17.7584 -19.7126 33.1353 -64.3206 0.86528 23.2014 -0.177631 26.8548 -0.152808 3.39583 -0.764539 -12.3193 -0.244447 0.0 0.0 0.0 20.1663 41.6528 -14.7917 -20.7089 0.286538 3.14775 -10.6166 -13.6235 1.71245 24.635 -0.0 -0.0 -0.0 0.0 -0.0 6.10477 17.3138 2.40126 -18.5188 -0.310325 -2.81258 25.8055 12.4105 3.61941 -4.375 0.0 0.0 0.0 0.0 0.0 
410.22 733.763 -629.759 -176.636 -72.4654 -179.594 0.918733 1.56026 3.42201 0.92425 1.33948 3.51422 1.00939 0.638194 3.70607 0.99228 1.21512 3.55908 -17.8528 6.22216 -10.2592 -17.9353 17.5547 -7.22126 -0.0 0.0 -0.0 -5.4735 25.148 -4.35805 -4.31671 -31.1333 63.7291 2.23775 -47.9397 0.995001 -66.1396 -6.05466 5.25094 -1.14353 17.4525 0.13478 -0.0 0.0 -0.0 9.81484 28.1074 -18.2137 -18.8887 36.8225 -62.4282 0.890134 23.7946 -0.187541 26.901 -0.151694 3.40163 -0.704699 -15.0505 -1.78559 0.0 0.0 0.0 20.3095 34.1607 -13.0772 -23.7338 0.232654 3.60874 -14.0387 -10.413 2.22568 24.5221 -0.0 -0.0 -0.0 0.0 -0.0 6.06329 12.7215 2.52953 -16.2645 -0.321413 -2.46689 25.7129 14.7941 3.66371 -5.38375 0.0 0.0 0.0 0.0 0.0 
412.163 730.162 -627.074 -178.053 -71.5915 179.032 0.843554 1.33094 3.5306 0.849811 1.10373 3.608 0.922333 0.382588 3.75341 0.903988 0.970175 3.64614 -18.3126 6.51391 -8.93401 -18.4756 17.3275 -5.78907 -0.0 0.0 -0.0 -5.39047 25.1478 -4.24652 -4.75255 -27.6841 64.3942 2.18805 -47.2993 0.95829 -65.9564 -6.03143 5.24767 -0.967724 18.126 1.49329 -0.0 0.0 -0.0 9.62201 28.0605 -17.79 -20.109 39.8979 -59.8188 0.896751 23.9517 -0.190219 26.4763 -0.161753 3.34832 -0.559632 -15.4119 -2.83491 0.0 0.0 0.0 21.8999 24.0729 -10.6355 -29.0477 0.0793621 4.40956 -17.479 -5.08625 2.70284 24.5319 -0.0 -0.0 -0.0 0.0 -0.0 5.93983 10.8613 2.60671 -17.5752 -0.316621 -2.66794 25.9661 16.5354 3.74006 -4.29045 0.0 0.0 0.0 0.0 0.0 
420.281 732.922 -625.598 -178.048 -72.5486 178.964 0.786831 1.17815 3.63735 0.793695 0.944475 3.70482 0.857858 0.20291 3.81777 0.838421 0.802885 3.73802 -19.1214 6.59414 -8.32954 -19.331 17.0524 -5.07532 -0.0 0.0 -0.0 -5.234 24.8788 -4.10871 -5.44493 -25.4724 65.4434 2.04808 -45.4087 0.856988 -65.8338 -6.01589 5.24545 -0.765515 18.28 2.77937 -0.0 0.0 -0.0 9.37394 27.0687 -17.3514 -19.6051 42.0526 -57.2585 0.903896 24.1208 -0.193129 26.2843 -0.166173 3.32418 -0.523418 -15.6546 -3.15948 0.0 0.0 0.0 23.1815 16.636 -9.89038 -32.8994 -0.0778666 4.97962 -19.8334 -2.28536 3.0372 24.5715 -0.0 -0.0 -0.0 0.0 -0.0 5.66115 9.57148 2.8356 -18.5589 -0.310005 -2.81872 26.1444 17.668 3.79415 -3.99313 0.0 0.0 0.0 0.0 0.0 
432.281 727.633 -624.448 -179.924 -73.0594 177.067 0.581174 1.04539 3.66726 0.58829 0.81008 3.72623 0.644391 0.0523916 3.81279 0.624704 0.653463 3.75682 -19.1486 6.22112 -9.72909 -19.2879 17.065 -6.54295 -0.0 0.0 -0.0 -5.06373 24.4082 -4.00266 -6.32547 -23.8161 65.9877 1.7366 -40.7006 0.644165 -63.8409 -5.76392 5.20461 -0.939759 16.8019 1.09044 -0.0 0.0 -0.0 10.4956 27.699 -19.783 -18.9539 43.8426 -55.2903 0.849889 22.8314 -0.171613 26.6291 -0.158182 3.3675 -0.815516 -15.4301 -1.26239 0.0 0.0 0.0 26.0326 11.4576 -9.45156 -40.2126 -0.480345 6.02801 -15.1921 0.477761 2.30144 22.4098 -0.0 -0.0 -0.0 0.0 -0.0 4.17525 8.58167 3.29885 -19.488 -0.301379 -2.96102 28.4285 17.8624 4.07268 -4.82712 0.0 0.0 0.0 0.0 0.0 
440.546 724.889 -619.66 178.837 -73.3147 175.516 0.551218 0.943169 3.72401 0.558656 0.704463 3.77638 0.608514 -0.0637453 3.8409 0.588343 0.543207 3.80288 -19.0375 6.17994 -10.5082 -19.1445 17.4132 -7.30809 -0.0 0.0 -0.0 -4.96834 24.0814 -3.95745 -7.12216 -22.5834 66.1271 1.4375 -35.4525 0.459513 -61.1497 -5.42607 5.13553 -0.893049 15.783 0.936362 -0.0 0.0 -0.0 10.5887 27.2817 -20.0404 -20.029 44.5685 -52.1759 0.845776 22.7322 -0.17002 26.3133 -0.165511 3.32783 -1.01914 -13.0958 1.01987 0.0 0.0 0.0 29.067 7.04041 -9.00042 -43.6354 -0.7141 6.49956 -18.9122 5.07965 2.84768 21.0073 -0.0 -0.0 -0.0 0.0 -0.0 3.03323 8.49513 3.58233 -20.1682 -0.293601 -3.06509 30.6077 18.0449 4.32807 -6.26312 0.0 0.0 0.0 0.0 0.0 
